{
	"patcher" : 	{
		"fileversion" : 1,
		"appversion" : 		{
			"major" : 6,
			"minor" : 0,
			"revision" : 8
		}
,
		"rect" : [ 684.0, 125.0, 675.0, 617.0 ],
		"bgcolor" : [ 1.0, 1.0, 1.0, 0.0 ],
		"bglocked" : 0,
		"openinpresentation" : 0,
		"default_fontsize" : 12.0,
		"default_fontface" : 0,
		"default_fontname" : "Arial",
		"gridonopen" : 0,
		"gridsize" : [ 15.0, 15.0 ],
		"gridsnaponopen" : 0,
		"statusbarvisible" : 2,
		"toolbarvisible" : 1,
		"boxanimatetime" : 200,
		"imprint" : 0,
		"enablehscroll" : 1,
		"enablevscroll" : 1,
		"devicewidth" : 0.0,
		"description" : "",
		"digest" : "",
		"tags" : "",
		"boxes" : [ 			{
				"box" : 				{
					"fontname" : "Arial",
					"fontsize" : 12.0,
					"id" : "obj-21",
					"maxclass" : "newobj",
					"numinlets" : 1,
					"numoutlets" : 0,
					"patching_rect" : [ 41.75, 215.0, 42.0, 20.0 ],
					"text" : "s new"
				}

			}
, 			{
				"box" : 				{
					"fontname" : "Arial",
					"fontsize" : 12.0,
					"id" : "obj-70",
					"maxclass" : "newobj",
					"numinlets" : 1,
					"numoutlets" : 2,
					"outlettype" : [ "", "" ],
					"patching_rect" : [ 249.0, 136.0, 103.0, 20.0 ],
					"text" : "osc-route /mouse"
				}

			}
, 			{
				"box" : 				{
					"fontname" : "Arial",
					"fontsize" : 12.0,
					"id" : "obj-61",
					"maxclass" : "newobj",
					"numinlets" : 1,
					"numoutlets" : 4,
					"outlettype" : [ "", "", "", "" ],
					"patching_rect" : [ 160.5, 257.0, 99.0, 20.0 ],
					"text" : "osc-route /x /y /z"
				}

			}
, 			{
				"box" : 				{
					"fontname" : "Arial",
					"fontsize" : 12.0,
					"id" : "obj-60",
					"maxclass" : "newobj",
					"numinlets" : 1,
					"numoutlets" : 0,
					"patching_rect" : [ 113.75, 107.0, 62.0, 20.0 ],
					"text" : "s #0_new"
				}

			}
, 			{
				"box" : 				{
					"fontname" : "Arial",
					"fontsize" : 12.0,
					"id" : "obj-59",
					"maxclass" : "newobj",
					"numinlets" : 2,
					"numoutlets" : 2,
					"outlettype" : [ "bang", "" ],
					"patching_rect" : [ 113.75, 81.0, 36.0, 20.0 ],
					"text" : "sel 0"
				}

			}
, 			{
				"box" : 				{
					"fontname" : "Arial",
					"fontsize" : 12.0,
					"id" : "obj-55",
					"maxclass" : "newobj",
					"numinlets" : 1,
					"numoutlets" : 1,
					"outlettype" : [ "inc" ],
					"patching_rect" : [ 560.0, 317.0, 33.0, 20.0 ],
					"text" : "t inc"
				}

			}
, 			{
				"box" : 				{
					"fontname" : "Arial",
					"fontsize" : 12.0,
					"id" : "obj-51",
					"maxclass" : "newobj",
					"numinlets" : 0,
					"numoutlets" : 1,
					"outlettype" : [ "" ],
					"patching_rect" : [ 560.0, 281.0, 40.0, 20.0 ],
					"text" : "r new"
				}

			}
, 			{
				"box" : 				{
					"fontname" : "Arial",
					"fontsize" : 12.0,
					"frgb" : 0.0,
					"id" : "obj-48",
					"maxclass" : "comment",
					"numinlets" : 1,
					"numoutlets" : 0,
					"patching_rect" : [ 197.0, 392.0, 57.0, 20.0 ],
					"text" : "Save file"
				}

			}
, 			{
				"box" : 				{
					"bgcolor" : [ 1.0, 1.0, 1.0, 0.0 ],
					"id" : "obj-43",
					"maxclass" : "button",
					"numinlets" : 1,
					"numoutlets" : 1,
					"outlettype" : [ "bang" ],
					"patching_rect" : [ 250.5, 392.0, 20.0, 20.0 ]
				}

			}
, 			{
				"box" : 				{
					"fontname" : "Arial",
					"fontsize" : 12.0,
					"id" : "obj-38",
					"maxclass" : "newobj",
					"numinlets" : 2,
					"numoutlets" : 2,
					"outlettype" : [ "", "" ],
					"patching_rect" : [ 250.5, 423.0, 50.0, 20.0 ],
					"text" : "zl reg"
				}

			}
, 			{
				"box" : 				{
					"fontname" : "Arial",
					"fontsize" : 12.0,
					"id" : "obj-35",
					"maxclass" : "newobj",
					"numinlets" : 2,
					"numoutlets" : 2,
					"outlettype" : [ "", "" ],
					"patching_rect" : [ 281.5, 358.0, 61.0, 20.0 ],
					"text" : "route text"
				}

			}
, 			{
				"box" : 				{
					"fontname" : "Arial",
					"fontsize" : 12.0,
					"id" : "obj-33",
					"maxclass" : "newobj",
					"numinlets" : 2,
					"numoutlets" : 1,
					"outlettype" : [ "" ],
					"patching_rect" : [ 281.5, 392.0, 195.0, 20.0 ],
					"text" : "sprintf write subject-%s-test-%d.txt"
				}

			}
, 			{
				"box" : 				{
					"fontname" : "Arial",
					"fontsize" : 12.0,
					"frgb" : 0.0,
					"id" : "obj-32",
					"maxclass" : "comment",
					"numinlets" : 1,
					"numoutlets" : 0,
					"patching_rect" : [ 514.5, 358.0, 77.0, 20.0 ],
					"text" : "Test number"
				}

			}
, 			{
				"box" : 				{
					"bgcolor" : [ 1.0, 1.0, 1.0, 1.0 ],
					"bordercolor" : [ 1.0, 1.0, 1.0, 1.0 ],
					"fgcolor" : [ 0.0, 0.0, 0.0, 1.0 ],
					"id" : "obj-31",
					"maxclass" : "incdec",
					"numinlets" : 1,
					"numoutlets" : 1,
					"outlettype" : [ "float" ],
					"parameter_enable" : 0,
					"patching_rect" : [ 494.5, 358.0, 20.0, 20.0 ]
				}

			}
, 			{
				"box" : 				{
					"fontname" : "Arial",
					"fontsize" : 12.0,
					"id" : "obj-25",
					"maxclass" : "number",
					"numinlets" : 1,
					"numoutlets" : 2,
					"outlettype" : [ "int", "bang" ],
					"parameter_enable" : 0,
					"patching_rect" : [ 457.5, 358.0, 37.0, 20.0 ],
					"triangle" : 0
				}

			}
, 			{
				"box" : 				{
					"fontname" : "Arial",
					"fontsize" : 12.0,
					"id" : "obj-19",
					"maxclass" : "newobj",
					"numinlets" : 1,
					"numoutlets" : 2,
					"outlettype" : [ "int", "clear" ],
					"patching_rect" : [ 93.625, 215.0, 53.0, 20.0 ],
					"text" : "t 0 clear"
				}

			}
, 			{
				"box" : 				{
					"fontname" : "Arial",
					"fontsize" : 12.0,
					"id" : "obj-17",
					"maxclass" : "newobj",
					"numinlets" : 2,
					"numoutlets" : 2,
					"outlettype" : [ "bang", "" ],
					"patching_rect" : [ 93.625, 182.0, 36.0, 20.0 ],
					"text" : "sel 1"
				}

			}
, 			{
				"box" : 				{
					"fontname" : "Arial",
					"fontsize" : 12.0,
					"id" : "obj-16",
					"maxclass" : "newobj",
					"numinlets" : 1,
					"numoutlets" : 3,
					"outlettype" : [ "int", "int", "int" ],
					"patching_rect" : [ 26.75, 136.0, 152.75, 20.0 ],
					"text" : "t i i i"
				}

			}
, 			{
				"box" : 				{
					"fontname" : "Arial",
					"fontsize" : 12.0,
					"id" : "obj-15",
					"maxclass" : "newobj",
					"numinlets" : 2,
					"numoutlets" : 1,
					"outlettype" : [ "bang" ],
					"patching_rect" : [ 26.75, 251.0, 58.0, 20.0 ],
					"text" : "metro 20"
				}

			}
, 			{
				"box" : 				{
					"fontname" : "Arial",
					"fontsize" : 12.0,
					"id" : "obj-14",
					"maxclass" : "newobj",
					"numinlets" : 2,
					"numoutlets" : 1,
					"outlettype" : [ "int" ],
					"patching_rect" : [ 58.0, 296.0, 32.5, 20.0 ],
					"text" : "+ 1"
				}

			}
, 			{
				"box" : 				{
					"fontname" : "Arial",
					"fontsize" : 12.0,
					"id" : "obj-8",
					"maxclass" : "newobj",
					"numinlets" : 2,
					"numoutlets" : 1,
					"outlettype" : [ "int" ],
					"patching_rect" : [ 26.75, 322.0, 50.25, 20.0 ],
					"text" : "i"
				}

			}
, 			{
				"box" : 				{
					"fontname" : "Arial",
					"fontsize" : 12.0,
					"id" : "obj-4",
					"maxclass" : "newobj",
					"numinlets" : 4,
					"numoutlets" : 1,
					"outlettype" : [ "" ],
					"patching_rect" : [ 26.75, 358.0, 206.083328, 20.0 ],
					"text" : "pack 0 0. 0. 0."
				}

			}
, 			{
				"box" : 				{
					"fontname" : "Arial",
					"fontsize" : 12.0,
					"id" : "obj-3",
					"maxclass" : "newobj",
					"numinlets" : 1,
					"numoutlets" : 4,
					"outlettype" : [ "", "", "", "" ],
					"patching_rect" : [ 26.75, 455.0, 81.0, 20.0 ],
					"saved_object_attributes" : 					{
						"embed" : 0
					}
,
					"text" : "coll textfile -1"
				}

			}
, 			{
				"box" : 				{
					"id" : "obj-9",
					"maxclass" : "toggle",
					"numinlets" : 1,
					"numoutlets" : 1,
					"outlettype" : [ "int" ],
					"parameter_enable" : 0,
					"patching_rect" : [ 249.0, 66.0, 20.0, 20.0 ]
				}

			}
, 			{
				"box" : 				{
					"fontname" : "Arial",
					"fontsize" : 12.0,
					"id" : "obj-5",
					"maxclass" : "newobj",
					"numinlets" : 1,
					"numoutlets" : 1,
					"outlettype" : [ "" ],
					"patching_rect" : [ 249.0, 101.0, 70.0, 20.0 ],
					"text" : "mousedata"
				}

			}
, 			{
				"box" : 				{
					"autofit" : 1,
					"data" : [ 3623, "", "IBkSG0fBZn....PCIgDQRA...zL...PPHX....fbNChx....DLmPIQEBHf.B7g.YHB..M3cRDEDU3wY6c86Sar7DeRTJ3OATpP2q4Rp9ZNprDJfoJcoJJmEcogmPHgDmCkHJI3HEonnWZR2S9h9VktTgwHK4JLjJ70voTEweBzcuBybL25cuc16N+Kx8QxJA681clYmY1Ym8G2ihhhhfRThRvFOdZS.knDyanznoDkvPTZzThRXHJMZJQILDOIqOXXP.7qKuD9wEW.md5oRKy62aOXoJU.Ka6LSfknDyZ3Qll8r199vOt3BnYylrelSZ0Bp45ZLwUhRLKBiLZZznwHFKNNNP+9809rkFNk3gBXazrxJqLhwgiiCb94mK82DAV1RLc.FNcdQQ43qsuetqiolS3HFvwwIB.XjOmzpUTTTTzIsZI82oebbb3zTkXLAOOOs8Qb9344UHziJcJS9b8fAEBsXJzl8rFMZnbTDzRulqK333nqpJwTDub4kAGGmb2OoJoOlfvf.VgzqBEAejKjlEUZifHNxgtQaJJOTkH+3jVsxkm975gmSjIxz2NoUqo1nKTjpQSZBVYFApBAvwwYlfYKQRj0P1xqCvrztyR5OJMZtdvfLI3PuX3GOOuYJFtDIA0wH1ewwqeVgndEmQ7l0lOrxE27e95WU8SohZttv4koVdtAqu95IlewKWdYP2Jv0ueensuelxdEMCddddw027DTlHfhXBekX1Gub4kS72KUoBqIY+iKtHSs269vGT11yKPoQy7l0eIJFXYaCqu95ZKWylMgvf.ipawrlMutX2RMZLUXThGF.Un+629VVk2zEKkFxOFZ17HjZzTDqbbIl+.FVlksMqPzngZwAzsfEWCyYQ7j7LpRZOqI6r4vffXuPplK05quN7xkWtP10zhzsLmDbBcPF+KVWlDBhN5RFuKJ6vPq9629VikSzPmd+d6AaTut1xGFDvpcnaaFGGmI9NeG2nwlne0nQiXY5wGe78EtH1NChe3jhvqGLHxyyKSKxFlZTNPLE33yaJ8mk5ARY8EPdmVe59P4YT9kV4ws4jN4C8Yn0uozTZfxiT5ZblhaNxnzzuT09Y97zjGHa2RSgmmG7xkWNNCMhkse+9P+98gSO8T386sWpdy+wEWLRRMxZRNJp5AfgiJj0mOLH.d8lap842ndc3ZCFYlFRlksM344o8HfvIKqhI.XoJUXQO4As88g28gOHUF433LRxNn8Gn9kRP81YpmOUOqJOCWOXPp0spcNftmKMucn2FS73Hi9udvfnSZ0x3QGUMRSVpKbajvs7p3EQ5fV9z9sznqz.U1K1WMNFoIM5NsEaOsczBER2Q.bDVltUJxpACWZhifk6dthScw0HjytgfacIR6bcvoSljVe.m5WmtfpPy3x6lXzjlSENamKY5oSMiFcBeNweqS.yglJxiwPdlSSVpKJeh0adogzFoIJhuAMm5WlbsnMZz4XlCjsUenXhbwZj1wK.Am3b0sBxMa1T6gaZRDOcV.mETDfgy263iOFrrsy8VrWDxRyL2TCqRtSSKMWdLqnnjGV11vIsZot.57Nn5C2QZ3DCtIdRxacUjzSQNRSVj4EAunajFt7op4ApSVTjizvQFxIhFYzFk1G6izvYieZhGHcK5FtYB+S.bVDRSksxV6IN0AtlMTHtC.lEtUh1ndcnsuOqc8hpQYGqFMgAArRIYQuw8Lckpmmw62aOk+liiSxEkSC52uuTEatgnI5fj12OKs4L2ndc30atIznQiTcvhgocRqVIjKi8QZJ5M9IWud+ofZttv0CF.dddwi5333.dddFeQlnZTKtaqFpQRae+39AGGmIxlyzj4q1ueenYylvF0qCqrxJvJqrhzQfp45NBsOVWbyo4dXi6163g.rrsMZDEUHMmMltsZnGcfwcB.PfF2l5zDKOxe3hqqxPerNRC2ybw3HiVka5Tygp4z..+9n+4qeEBCBlZaNyzBWkKvQfZzngT4wb2c47rTrwOzfp4z.v8aqFc3zSOMwbalzaNyZttE1wNnYylve8rmMhgybmQSVOwfkPOzMuENNrv4JfnH77aJN93iKzq3IQCm4NilxQZFeP2bAxx8a2z5zYd94mm9BTZHnidN2YzLMmmzCcj1bZPXxj5m1mNSYYVLqfd7tGqFMbGUnbR6yFHs4zfvjI0OoOcls88GYcWvLKd94mmaCHTOcrZzLsFZdZbx.en.cizvcMalz8AgAAvF0qCaTutRdPz.5jVsxjAzXO7LNCQaxj64rCCRaxmkFS4Gblb+jNA.z90Wu4lrJeMW2349Xx0V0X2ngSHZlbGqw4U5QdmOyeR6n.QGVbBUli7cZd8LY59OrlqK7++2+Ua4Pc4wtQSQl2bNBh2u2dZGMgiWEcsUQus7mVPzgEmQ80Eh1zJA.TZ5ce3CFcUjwYcnPmESjrmoaBgb8LnqCk6dbhSFfRaSe112G9qm8Ls0wrNjoTw80BYZgeMKb8L0ueeVgowEIliltyQfpOldts0c1Ox64fwD5g6YeGOgj3Yo.OW+bdVSoqw8EOtLn5bxv8s7PdoQStuC3bNXjwOb4EUOO9gVGiXzXx6NDGCemgn6L5m1AaKO2u.lVexpeYchlbAjHZ.lUYtmmmQGjJJv1m6E5A1VlbQTn6vIZJMXB8jlS.cxLcWFGT.Hijk6eLSEXbZKpgHdCvjUCMczQV4SrCHKxLjdy6KVItJCHx6qOPYxYYJZoc66TD5XTd2zKADz4kI5WxjufJlOqLBWjWgXQ7duwTmEhcTlR+Tk7hRlmkKquhrukdoGlFsTTuyOoeRynIqWTfbzudTTTTTQ8l+E.yS0HdsphYwQUFobt6BdqntZZo.u9QS6hkS107JdUmhP1qsBD3EgAVGEkLmqrHuGA77JyKRcLDhzjpqQV5URaZ5W..J6qof8qD8IERa0bmFsc4hg9vBEg90LmQSIJwrNl61kyknDSaTZzThRXHlZFMSy21Z4ssCCBh+LqgYQZJufq7dR0m7D.FMyJhY.S2uaJZ66CUO7H3p0VEd9W9TtpmznKwL1Ty0M2scXP.b6G+LX0o6vuH3mZKOkFDy3ite2Dbq8+CdJ.P32+1XOAFbnaZ+Sdy91Se0aFVmGruT8uvff3xLt4+m.vPFBaP..nMbuBXXP.T8vih+sdGr+XiXLEoQ2.LTP+z69+Hcm2c.sksMDt61.fFMLAUFRMz90kWF+agqsJ.Lou199vhm0CVX2suOM1qs58FyiYXYamf1AHoxJ5bBoKt7kp15JC3swsCiGiMRuC1eHyA.r3Y8hKvut7x3uGfhYKeWy0EVH3m4ZTF.Fktocfs88kR2V11vu+92xcaaBMVy0MAsP8.Sk027hpr6vW7rdfUmtI71+7u7I32SfQYPHxWTZYwy5k32F2zjksMrPvOgEzLxeQf3KKvEOq2vNsNcAqNciWHN52i.CQAwy+xmfq1ZmD+M.26M7lWTM9eWpRkQdVY04MunJaCTJ8wktu5t1FoQqNcgdGreBkXpWbrbYAXb18NXen5gGMrdtKTQ3EUA..odQQYJJ+P5osuOT8txu3Y8f12Udj9ZSjcx5Cp45JUdixASM7D4qzlWA1tX6A.jvAlN8.jeqd3QP3ZqFKSn5eKr61..vH0i3ynq8DkcHslHQ.KUoRr2gec4kwLuXHMV11inPtvtaGavgDC54ulqKrvtaOrSQxyhwiZ0oar.r5gGwZUrQlAoap.PFcKRmhcHn.m5EG4Ej9vxXJP5whnvqJbwq1ZGvpSWXgc2Fp45BVc5BO8UuABCBRzOgNhvxPkqzPjP9Dkqz9A7Yt4NCXZHulxW3bcnxHrdw51pS26G4uS2394199ws8y+xm.qNcSFVKo8vPQw9aw9Uzn.+NYOCcdPh5cxzeQLR1yPFbwy5A29wOmYEDTgypSW3ps1IgfTT4IV4jnHDt1prl+ARuT57ps1gEcK5QDCOhJC.3dCw7NeNKa6XdD8LJyidae+Q57oNEDeFwxf.6zQYA9u32ix2v0VU5cVbV3qa+3micNhfNBcuC1eXH0DYO963+hx+v0VcDdB6iD6eoz.srX8PeFQ8N.TGxrL82XiladQU3WWdYBO.Hwjk8LDMdWziAp7IZjHF1SMW2gdZLHDApmEtzM25uHmb8MjvwndfkAQkf7BQ4g3emmz0ZBegNjEgnb94e4SJm6or9Vt8Sxz6VpREXgc2Nd9tTiPQ82XiFZEP83mUz12OlHPOzHSINBxMJhqGy69UasixNTYzMhh5tOSkwMEWs0NJCmjZbRoIUd1EGIlBw9DN7nJmGo0NHZ66mX9Bp.kWT0+JFlK98zQD.PnOMm2szxfX3nVc5BV11weBCBh0eWH3min+9Xjvr5zcXFOBBFILJJSfJFTAdae+DdNBCBR3MIN80j4KgOKFiNBT4C6nv0DQlmIUzsrIBhzMUARbwvDCS.KCcX8199iLrNRGUO7Hocx37Sv4RPC6.eVrcwDYf+Ns9kEx5se7yi7Jh.oeryVju982+lTYAEn7BUxk4P.CiD+Mjuh2Q2B7k3yRoKQ4LpGb6G+7H7FcMhPcHZYveSreTjeoyMjp2gkCmConysGEEEEIaQBi67jrktEyt..CUTEWrKYOWZKJlX8Qa+pGdzHoSzT5VFMI9cx9ar9PiPQu8X69zW8FnmvhuIieQfYBSjdnxCw1gVuT5QGcKlANYzkp9K74yCeg0GMiTzLoJRWzrUoiVw1VWY3pGqSuetXWNe0V6XTJnmF.UtlTq+yjBHeQSS6e5XleCaFFDLyav.vPubOzLX..hyZToAy8XtXjlRThYI7e.NsNZVKCiuQN.....IUjSD4pPfIH" ],
					"embed" : 1,
					"id" : "obj-50",
					"maxclass" : "fpic",
					"numinlets" : 1,
					"numoutlets" : 0,
					"patching_rect" : [ 250.5, 543.0, 139.0, 45.0 ],
					"pic" : "UIO:/Users/fourms_user/Desktop/Qualisys-demo/graphics/fourMs-BlackRed.gif"
				}

			}
, 			{
				"box" : 				{
					"fontname" : "Arial",
					"fontsize" : 12.0,
					"frgb" : 0.0,
					"id" : "obj-13",
					"maxclass" : "comment",
					"numinlets" : 1,
					"numoutlets" : 0,
					"patching_rect" : [ 26.75, 50.0, 236.0, 20.0 ],
					"text" : "Record the input from the HyperMusic iOS"
				}

			}
, 			{
				"box" : 				{
					"fontname" : "Arial",
					"fontsize" : 12.0,
					"id" : "obj-53",
					"maxclass" : "newobj",
					"numinlets" : 1,
					"numoutlets" : 1,
					"outlettype" : [ "" ],
					"patching_rect" : [ 366.5, 156.0, 72.0, 20.0 ],
					"text" : "loadmess 2"
				}

			}
, 			{
				"box" : 				{
					"fontname" : "Arial",
					"fontsize" : 12.0,
					"frgb" : 0.0,
					"id" : "obj-34",
					"maxclass" : "comment",
					"numinlets" : 1,
					"numoutlets" : 0,
					"patching_rect" : [ 482.5, 182.0, 62.0, 20.0 ],
					"text" : "Filter data"
				}

			}
, 			{
				"box" : 				{
					"fontname" : "Arial",
					"fontsize" : 12.0,
					"id" : "obj-10",
					"items" : [ "All", ",", "Acceleration", ",", "Rotation", ",", "Gravity", ",", "Attitude", ",", "Attitude/Quaternions" ],
					"maxclass" : "umenu",
					"numinlets" : 1,
					"numoutlets" : 3,
					"outlettype" : [ "int", "", "" ],
					"parameter_enable" : 0,
					"patching_rect" : [ 366.5, 182.0, 116.0, 20.0 ]
				}

			}
, 			{
				"box" : 				{
					"fontname" : "Arial",
					"fontsize" : 12.0,
					"frgb" : 0.0,
					"id" : "obj-27",
					"maxclass" : "comment",
					"numinlets" : 1,
					"numoutlets" : 0,
					"patching_rect" : [ 291.5, 182.0, 62.0, 20.0 ],
					"text" : "Print data"
				}

			}
, 			{
				"box" : 				{
					"fontname" : "Arial",
					"fontsize" : 12.0,
					"frgb" : 0.0,
					"id" : "obj-12",
					"maxclass" : "comment",
					"numinlets" : 1,
					"numoutlets" : 0,
					"patching_rect" : [ 180.5, 182.0, 73.0, 20.0 ],
					"text" : "Output data"
				}

			}
, 			{
				"box" : 				{
					"id" : "obj-20",
					"maxclass" : "toggle",
					"numinlets" : 1,
					"numoutlets" : 1,
					"outlettype" : [ "int" ],
					"parameter_enable" : 0,
					"patching_rect" : [ 271.5, 182.0, 20.0, 20.0 ]
				}

			}
, 			{
				"box" : 				{
					"id" : "obj-18",
					"maxclass" : "toggle",
					"numinlets" : 1,
					"numoutlets" : 1,
					"outlettype" : [ "int" ],
					"parameter_enable" : 0,
					"patching_rect" : [ 160.5, 182.0, 20.0, 20.0 ]
				}

			}
, 			{
				"box" : 				{
					"fontname" : "Arial",
					"fontsize" : 12.0,
					"id" : "obj-2",
					"maxclass" : "newobj",
					"numinlets" : 3,
					"numoutlets" : 1,
					"outlettype" : [ "" ],
					"patching_rect" : [ 160.5, 215.0, 241.0, 20.0 ],
					"text" : "iPod-Input @port 7113"
				}

			}
, 			{
				"box" : 				{
					"fontname" : "Arial",
					"fontsize" : 12.0,
					"frgb" : 0.0,
					"id" : "obj-7",
					"maxclass" : "comment",
					"numinlets" : 1,
					"numoutlets" : 0,
					"patching_rect" : [ 324.5, 281.0, 93.0, 20.0 ],
					"text" : "Recording at ->"
				}

			}
, 			{
				"box" : 				{
					"fontname" : "Arial",
					"fontsize" : 12.0,
					"frgb" : 0.0,
					"id" : "obj-6",
					"maxclass" : "comment",
					"numinlets" : 1,
					"numoutlets" : 0,
					"patching_rect" : [ 369.5, 322.0, 114.0, 20.0 ],
					"text" : "Enter subject name"
				}

			}
, 			{
				"box" : 				{
					"fontface" : 1,
					"fontname" : "Arial",
					"fontsize" : 30.0,
					"frgb" : 0.0,
					"id" : "obj-39",
					"maxclass" : "comment",
					"numinlets" : 1,
					"numoutlets" : 0,
					"patching_rect" : [ 26.75, 10.0, 319.0, 40.0 ],
					"text" : "iPod Mocap Recorder"
				}

			}
, 			{
				"box" : 				{
					"bgcolor" : [ 0.74902, 0.74902, 0.74902, 0.0 ],
					"bgoncolor" : [ 0.54902, 0.54902, 0.54902, 0.0 ],
					"bgovercolor" : [ 0.698039, 0.698039, 0.698039, 0.0 ],
					"bgoveroncolor" : [ 0.501961, 0.501961, 0.501961, 0.0 ],
					"border" : 1,
					"bordercolor" : [ 0.662745, 0.662745, 0.662745, 1.0 ],
					"borderoncolor" : [ 0.662745, 0.662745, 0.662745, 1.0 ],
					"fontface" : 1,
					"fontname" : "Arial",
					"fontsize" : 14.0,
					"id" : "obj-24",
					"maxclass" : "textbutton",
					"mode" : 1,
					"numinlets" : 1,
					"numoutlets" : 3,
					"outlettype" : [ "", "", "int" ],
					"parameter_enable" : 0,
					"patching_rect" : [ 26.75, 81.0, 72.0, 24.0 ],
					"rounded" : 0.0,
					"text" : "Record",
					"textcolor" : [ 0.0, 0.0, 0.0, 1.0 ],
					"texton" : "Stop",
					"textoncolor" : [ 0.0, 0.0, 0.0, 1.0 ],
					"textovercolor" : [ 0.0, 0.0, 0.0, 1.0 ],
					"textoveroncolor" : [ 0.0, 0.0, 0.0, 1.0 ]
				}

			}
, 			{
				"box" : 				{
					"bordercolor" : [ 0.501961, 0.501961, 0.501961, 1.0 ],
					"fontname" : "Arial",
					"fontsize" : 12.0,
					"frgb" : 0.0,
					"id" : "obj-1",
					"keymode" : 1,
					"lines" : 1,
					"maxclass" : "textedit",
					"numinlets" : 1,
					"numoutlets" : 4,
					"outlettype" : [ "", "int", "", "" ],
					"parameter_enable" : 0,
					"patching_rect" : [ 281.5, 322.0, 89.0, 21.0 ],
					"text" : "Kula"
				}

			}
, 			{
				"box" : 				{
					"bgcolor" : [ 1.0, 1.0, 1.0, 0.0 ],
					"bgcolor2" : [ 1.0, 1.0, 1.0, 0.0 ],
					"fontname" : "Arial",
					"fontsize" : 12.0,
					"gradient" : 1,
					"id" : "obj-30",
					"maxclass" : "message",
					"numinlets" : 2,
					"numoutlets" : 1,
					"outlettype" : [ "" ],
					"patching_rect" : [ 412.5, 281.0, 129.0, 18.0 ],
					"text" : "No data received"
				}

			}
, 			{
				"box" : 				{
					"fontname" : "Arial",
					"fontsize" : 12.0,
					"id" : "obj-11",
					"maxclass" : "newobj",
					"numinlets" : 1,
					"numoutlets" : 1,
					"outlettype" : [ "" ],
					"patcher" : 					{
						"fileversion" : 1,
						"appversion" : 						{
							"major" : 6,
							"minor" : 0,
							"revision" : 8
						}
,
						"rect" : [ 540.0, 88.0, 299.0, 323.0 ],
						"bglocked" : 0,
						"openinpresentation" : 0,
						"default_fontsize" : 9.0,
						"default_fontface" : 0,
						"default_fontname" : "Arial",
						"gridonopen" : 0,
						"gridsize" : [ 15.0, 15.0 ],
						"gridsnaponopen" : 0,
						"statusbarvisible" : 2,
						"toolbarvisible" : 1,
						"boxanimatetime" : 200,
						"imprint" : 0,
						"enablehscroll" : 1,
						"enablevscroll" : 1,
						"devicewidth" : 0.0,
						"description" : "",
						"digest" : "",
						"tags" : "",
						"boxes" : [ 							{
								"box" : 								{
									"fontname" : "Arial",
									"fontsize" : 9.0,
									"id" : "obj-4",
									"maxclass" : "newobj",
									"numinlets" : 2,
									"numoutlets" : 1,
									"outlettype" : [ "" ],
									"patching_rect" : [ 10.0, 43.0, 59.0, 17.0 ],
									"text" : "speedlim 10"
								}

							}
, 							{
								"box" : 								{
									"comment" : "",
									"id" : "obj-2",
									"maxclass" : "inlet",
									"numinlets" : 0,
									"numoutlets" : 1,
									"outlettype" : [ "" ],
									"patching_rect" : [ 10.0, 5.0, 25.0, 25.0 ]
								}

							}
, 							{
								"box" : 								{
									"comment" : "",
									"id" : "obj-13",
									"maxclass" : "outlet",
									"numinlets" : 1,
									"numoutlets" : 0,
									"patching_rect" : [ 88.0, 284.0, 25.0, 25.0 ]
								}

							}
, 							{
								"box" : 								{
									"fontname" : "Arial",
									"fontsize" : 9.0,
									"id" : "obj-12",
									"maxclass" : "newobj",
									"numinlets" : 1,
									"numoutlets" : 1,
									"outlettype" : [ "" ],
									"patching_rect" : [ 88.0, 228.0, 57.0, 17.0 ],
									"text" : "fromsymbol"
								}

							}
, 							{
								"box" : 								{
									"fontname" : "Arial",
									"fontsize" : 9.0,
									"id" : "obj-32",
									"maxclass" : "newobj",
									"numinlets" : 1,
									"numoutlets" : 1,
									"outlettype" : [ "int" ],
									"patching_rect" : [ 10.0, 150.0, 18.0, 17.0 ],
									"text" : "t i"
								}

							}
, 							{
								"box" : 								{
									"fontname" : "Arial",
									"fontsize" : 9.0,
									"id" : "obj-37",
									"maxclass" : "newobj",
									"numinlets" : 1,
									"numoutlets" : 1,
									"outlettype" : [ "" ],
									"patching_rect" : [ 10.0, 202.0, 54.0, 17.0 ],
									"text" : "append Hz"
								}

							}
, 							{
								"box" : 								{
									"fontname" : "Arial",
									"fontsize" : 9.0,
									"id" : "obj-42",
									"maxclass" : "newobj",
									"numinlets" : 1,
									"numoutlets" : 1,
									"outlettype" : [ "No data received" ],
									"patching_rect" : [ 88.0, 202.0, 90.0, 17.0 ],
									"text" : "t \"No data received\""
								}

							}
, 							{
								"box" : 								{
									"fontname" : "Arial",
									"fontsize" : 9.0,
									"id" : "obj-39",
									"maxclass" : "newobj",
									"numinlets" : 2,
									"numoutlets" : 2,
									"outlettype" : [ "bang", "" ],
									"patching_rect" : [ 77.0, 175.0, 30.0, 17.0 ],
									"text" : "sel 0"
								}

							}
, 							{
								"box" : 								{
									"fontname" : "Arial",
									"fontsize" : 9.0,
									"id" : "obj-40",
									"maxclass" : "newobj",
									"numinlets" : 1,
									"numoutlets" : 1,
									"outlettype" : [ "" ],
									"patching_rect" : [ 77.0, 100.0, 57.0, 17.0 ],
									"text" : "loadmess 1"
								}

							}
, 							{
								"box" : 								{
									"fontname" : "Arial",
									"fontsize" : 9.0,
									"id" : "obj-41",
									"maxclass" : "newobj",
									"numinlets" : 2,
									"numoutlets" : 1,
									"outlettype" : [ "bang" ],
									"patching_rect" : [ 77.0, 126.0, 56.0, 17.0 ],
									"text" : "metro 1000"
								}

							}
, 							{
								"box" : 								{
									"fontname" : "Arial",
									"fontsize" : 9.0,
									"id" : "obj-43",
									"maxclass" : "newobj",
									"numinlets" : 1,
									"numoutlets" : 1,
									"outlettype" : [ "int" ],
									"patching_rect" : [ 171.5, 100.0, 24.0, 17.0 ],
									"text" : "t 0"
								}

							}
, 							{
								"box" : 								{
									"fontname" : "Arial",
									"fontsize" : 9.0,
									"id" : "obj-7",
									"maxclass" : "newobj",
									"numinlets" : 5,
									"numoutlets" : 4,
									"outlettype" : [ "int", "", "", "int" ],
									"patching_rect" : [ 77.0, 150.0, 208.0, 17.0 ],
									"text" : "counter"
								}

							}
, 							{
								"box" : 								{
									"fontname" : "Arial",
									"fontsize" : 9.0,
									"id" : "obj-44",
									"maxclass" : "newobj",
									"numinlets" : 2,
									"numoutlets" : 1,
									"outlettype" : [ "float" ],
									"patching_rect" : [ 10.0, 126.0, 41.0, 17.0 ],
									"text" : "!/ 1000."
								}

							}
, 							{
								"box" : 								{
									"fontname" : "Arial",
									"fontsize" : 9.0,
									"id" : "obj-45",
									"maxclass" : "newobj",
									"numinlets" : 1,
									"numoutlets" : 1,
									"outlettype" : [ "bang" ],
									"patching_rect" : [ 10.0, 70.0, 21.0, 17.0 ],
									"text" : "t b"
								}

							}
, 							{
								"box" : 								{
									"fontname" : "Arial",
									"fontsize" : 9.0,
									"id" : "obj-26",
									"maxclass" : "newobj",
									"numinlets" : 2,
									"numoutlets" : 2,
									"outlettype" : [ "float", "" ],
									"patching_rect" : [ 10.0, 100.0, 30.0, 17.0 ],
									"text" : "timer"
								}

							}
 ],
						"lines" : [ 							{
								"patchline" : 								{
									"destination" : [ "obj-13", 0 ],
									"disabled" : 0,
									"hidden" : 0,
									"source" : [ "obj-12", 0 ]
								}

							}
, 							{
								"patchline" : 								{
									"destination" : [ "obj-4", 0 ],
									"disabled" : 0,
									"hidden" : 0,
									"source" : [ "obj-2", 0 ]
								}

							}
, 							{
								"patchline" : 								{
									"destination" : [ "obj-44", 0 ],
									"disabled" : 0,
									"hidden" : 0,
									"midpoints" : [ 19.5, 126.0, 19.5, 126.0 ],
									"source" : [ "obj-26", 0 ]
								}

							}
, 							{
								"patchline" : 								{
									"destination" : [ "obj-37", 0 ],
									"disabled" : 0,
									"hidden" : 0,
									"source" : [ "obj-32", 0 ]
								}

							}
, 							{
								"patchline" : 								{
									"destination" : [ "obj-13", 0 ],
									"disabled" : 0,
									"hidden" : 0,
									"source" : [ "obj-37", 0 ]
								}

							}
, 							{
								"patchline" : 								{
									"destination" : [ "obj-42", 0 ],
									"disabled" : 0,
									"hidden" : 0,
									"midpoints" : [ 97.5, 196.5, 97.5, 196.5 ],
									"source" : [ "obj-39", 1 ]
								}

							}
, 							{
								"patchline" : 								{
									"destination" : [ "obj-45", 0 ],
									"disabled" : 0,
									"hidden" : 0,
									"source" : [ "obj-4", 0 ]
								}

							}
, 							{
								"patchline" : 								{
									"destination" : [ "obj-41", 0 ],
									"disabled" : 0,
									"hidden" : 0,
									"source" : [ "obj-40", 0 ]
								}

							}
, 							{
								"patchline" : 								{
									"destination" : [ "obj-7", 0 ],
									"disabled" : 0,
									"hidden" : 0,
									"source" : [ "obj-41", 0 ]
								}

							}
, 							{
								"patchline" : 								{
									"destination" : [ "obj-12", 0 ],
									"disabled" : 0,
									"hidden" : 0,
									"source" : [ "obj-42", 0 ]
								}

							}
, 							{
								"patchline" : 								{
									"destination" : [ "obj-7", 2 ],
									"disabled" : 0,
									"hidden" : 0,
									"source" : [ "obj-43", 0 ]
								}

							}
, 							{
								"patchline" : 								{
									"destination" : [ "obj-32", 0 ],
									"disabled" : 0,
									"hidden" : 0,
									"source" : [ "obj-44", 0 ]
								}

							}
, 							{
								"patchline" : 								{
									"destination" : [ "obj-26", 1 ],
									"disabled" : 0,
									"hidden" : 0,
									"source" : [ "obj-45", 0 ]
								}

							}
, 							{
								"patchline" : 								{
									"destination" : [ "obj-26", 0 ],
									"disabled" : 0,
									"hidden" : 0,
									"midpoints" : [ 19.5, 93.0, 19.5, 93.0 ],
									"source" : [ "obj-45", 0 ]
								}

							}
, 							{
								"patchline" : 								{
									"destination" : [ "obj-43", 0 ],
									"disabled" : 0,
									"hidden" : 0,
									"source" : [ "obj-45", 0 ]
								}

							}
, 							{
								"patchline" : 								{
									"destination" : [ "obj-39", 0 ],
									"disabled" : 0,
									"hidden" : 0,
									"source" : [ "obj-7", 0 ]
								}

							}
 ]
					}
,
					"patching_rect" : [ 324.5, 251.0, 88.0, 20.0 ],
					"saved_object_attributes" : 					{
						"default_fontface" : 0,
						"default_fontname" : "Arial",
						"default_fontsize" : 9.0,
						"description" : "",
						"digest" : "",
						"fontface" : 0,
						"fontname" : "Arial",
						"fontsize" : 9.0,
						"globalpatchername" : "",
						"tags" : ""
					}
,
					"text" : "p receive-data"
				}

			}
 ],
		"lines" : [ 			{
				"patchline" : 				{
					"destination" : [ "obj-35", 0 ],
					"disabled" : 0,
					"hidden" : 0,
					"source" : [ "obj-1", 0 ]
				}

			}
, 			{
				"patchline" : 				{
					"destination" : [ "obj-2", 2 ],
					"disabled" : 0,
					"hidden" : 0,
					"midpoints" : [ 424.5, 208.0, 392.0, 208.0 ],
					"source" : [ "obj-10", 1 ]
				}

			}
, 			{
				"patchline" : 				{
					"destination" : [ "obj-30", 1 ],
					"disabled" : 0,
					"hidden" : 0,
					"midpoints" : [ 334.0, 275.0, 532.0, 275.0 ],
					"source" : [ "obj-11", 0 ]
				}

			}
, 			{
				"patchline" : 				{
					"destination" : [ "obj-8", 1 ],
					"disabled" : 0,
					"hidden" : 0,
					"source" : [ "obj-14", 0 ]
				}

			}
, 			{
				"patchline" : 				{
					"destination" : [ "obj-8", 0 ],
					"disabled" : 0,
					"hidden" : 0,
					"source" : [ "obj-15", 0 ]
				}

			}
, 			{
				"patchline" : 				{
					"destination" : [ "obj-15", 0 ],
					"disabled" : 0,
					"hidden" : 0,
					"source" : [ "obj-16", 0 ]
				}

			}
, 			{
				"patchline" : 				{
					"destination" : [ "obj-17", 0 ],
					"disabled" : 0,
					"hidden" : 0,
					"source" : [ "obj-16", 1 ]
				}

			}
, 			{
				"patchline" : 				{
					"destination" : [ "obj-9", 0 ],
					"disabled" : 0,
					"hidden" : 0,
					"source" : [ "obj-16", 2 ]
				}

			}
, 			{
				"patchline" : 				{
					"destination" : [ "obj-19", 0 ],
					"disabled" : 0,
					"hidden" : 0,
					"source" : [ "obj-17", 0 ]
				}

			}
, 			{
				"patchline" : 				{
					"destination" : [ "obj-21", 0 ],
					"disabled" : 0,
					"hidden" : 0,
					"midpoints" : [ 103.125, 208.0, 51.25, 208.0 ],
					"source" : [ "obj-17", 0 ]
				}

			}
, 			{
				"patchline" : 				{
					"destination" : [ "obj-2", 0 ],
					"disabled" : 0,
					"hidden" : 0,
					"source" : [ "obj-18", 0 ]
				}

			}
, 			{
				"patchline" : 				{
					"destination" : [ "obj-3", 0 ],
					"disabled" : 0,
					"hidden" : 0,
					"midpoints" : [ 137.125, 279.0, 15.0, 279.0, 15.0, 384.0, 36.25, 384.0 ],
					"source" : [ "obj-19", 1 ]
				}

			}
, 			{
				"patchline" : 				{
					"destination" : [ "obj-8", 1 ],
					"disabled" : 0,
					"hidden" : 0,
					"midpoints" : [ 103.125, 319.0, 67.5, 319.0 ],
					"source" : [ "obj-19", 0 ]
				}

			}
, 			{
				"patchline" : 				{
					"destination" : [ "obj-11", 0 ],
					"disabled" : 0,
					"hidden" : 0,
					"midpoints" : [ 170.0, 242.5, 334.0, 242.5 ],
					"source" : [ "obj-2", 0 ]
				}

			}
, 			{
				"patchline" : 				{
					"destination" : [ "obj-61", 0 ],
					"disabled" : 0,
					"hidden" : 0,
					"source" : [ "obj-2", 0 ]
				}

			}
, 			{
				"patchline" : 				{
					"destination" : [ "obj-2", 1 ],
					"disabled" : 0,
					"hidden" : 0,
					"source" : [ "obj-20", 0 ]
				}

			}
, 			{
				"patchline" : 				{
					"destination" : [ "obj-16", 0 ],
					"disabled" : 0,
					"hidden" : 0,
					"source" : [ "obj-24", 0 ]
				}

			}
, 			{
				"patchline" : 				{
					"destination" : [ "obj-59", 0 ],
					"disabled" : 0,
					"hidden" : 0,
					"midpoints" : [ 36.25, 123.0, 105.0, 123.0, 105.0, 78.0, 123.25, 78.0 ],
					"source" : [ "obj-24", 0 ]
				}

			}
, 			{
				"patchline" : 				{
					"destination" : [ "obj-33", 1 ],
					"disabled" : 0,
					"hidden" : 0,
					"midpoints" : [ 467.0, 386.5, 467.0, 386.5 ],
					"source" : [ "obj-25", 0 ]
				}

			}
, 			{
				"patchline" : 				{
					"destination" : [ "obj-25", 0 ],
					"disabled" : 0,
					"hidden" : 1,
					"source" : [ "obj-31", 0 ]
				}

			}
, 			{
				"patchline" : 				{
					"destination" : [ "obj-38", 1 ],
					"disabled" : 0,
					"hidden" : 0,
					"source" : [ "obj-33", 0 ]
				}

			}
, 			{
				"patchline" : 				{
					"destination" : [ "obj-33", 0 ],
					"disabled" : 0,
					"hidden" : 0,
					"source" : [ "obj-35", 0 ]
				}

			}
, 			{
				"patchline" : 				{
					"destination" : [ "obj-3", 0 ],
					"disabled" : 0,
					"hidden" : 0,
					"midpoints" : [ 260.0, 448.5, 36.25, 448.5 ],
					"source" : [ "obj-38", 0 ]
				}

			}
, 			{
				"patchline" : 				{
					"destination" : [ "obj-3", 0 ],
					"disabled" : 0,
					"hidden" : 0,
					"source" : [ "obj-4", 0 ]
				}

			}
, 			{
				"patchline" : 				{
					"destination" : [ "obj-38", 0 ],
					"disabled" : 0,
					"hidden" : 0,
					"source" : [ "obj-43", 0 ]
				}

			}
, 			{
				"patchline" : 				{
					"destination" : [ "obj-70", 0 ],
					"disabled" : 0,
					"hidden" : 0,
					"source" : [ "obj-5", 0 ]
				}

			}
, 			{
				"patchline" : 				{
					"destination" : [ "obj-55", 0 ],
					"disabled" : 0,
					"hidden" : 0,
					"midpoints" : [ 569.5, 308.5, 569.5, 308.5 ],
					"source" : [ "obj-51", 0 ]
				}

			}
, 			{
				"patchline" : 				{
					"destination" : [ "obj-10", 0 ],
					"disabled" : 0,
					"hidden" : 0,
					"source" : [ "obj-53", 0 ]
				}

			}
, 			{
				"patchline" : 				{
					"destination" : [ "obj-31", 0 ],
					"disabled" : 0,
					"hidden" : 0,
					"midpoints" : [ 569.5, 347.0, 504.0, 347.0 ],
					"source" : [ "obj-55", 0 ]
				}

			}
, 			{
				"patchline" : 				{
					"destination" : [ "obj-60", 0 ],
					"disabled" : 0,
					"hidden" : 0,
					"source" : [ "obj-59", 0 ]
				}

			}
, 			{
				"patchline" : 				{
					"destination" : [ "obj-4", 3 ],
					"disabled" : 0,
					"hidden" : 0,
					"source" : [ "obj-61", 2 ]
				}

			}
, 			{
				"patchline" : 				{
					"destination" : [ "obj-4", 2 ],
					"disabled" : 0,
					"hidden" : 0,
					"source" : [ "obj-61", 1 ]
				}

			}
, 			{
				"patchline" : 				{
					"destination" : [ "obj-4", 1 ],
					"disabled" : 0,
					"hidden" : 0,
					"source" : [ "obj-61", 0 ]
				}

			}
, 			{
				"patchline" : 				{
					"destination" : [ "obj-61", 0 ],
					"disabled" : 0,
					"hidden" : 0,
					"source" : [ "obj-70", 0 ]
				}

			}
, 			{
				"patchline" : 				{
					"destination" : [ "obj-14", 0 ],
					"disabled" : 0,
					"hidden" : 0,
					"midpoints" : [ 36.25, 347.0, 93.875, 347.0, 93.875, 289.0, 67.5, 289.0 ],
					"source" : [ "obj-8", 0 ]
				}

			}
, 			{
				"patchline" : 				{
					"destination" : [ "obj-4", 0 ],
					"disabled" : 0,
					"hidden" : 0,
					"source" : [ "obj-8", 0 ]
				}

			}
, 			{
				"patchline" : 				{
					"destination" : [ "obj-5", 0 ],
					"disabled" : 0,
					"hidden" : 0,
					"source" : [ "obj-9", 0 ]
				}

			}
 ],
		"dependency_cache" : [ 			{
				"name" : "iPod-Input.maxpat",
				"bootpath" : "/Users/evenbekkedal/Dropbox/Kode/Max/Even-max-patches/Robin Demonstrasjonmateriale 2013/iPod Demopatches/iPod MoCap Tools",
				"patcherrelativepath" : "../iPod MoCap Tools",
				"type" : "JSON",
				"implicit" : 1
			}
, 			{
				"name" : "mousedata.maxpat",
				"bootpath" : "/Users/evenbekkedal/Dropbox/Kode/Max/_Ryddes",
				"patcherrelativepath" : "../../../../_Ryddes",
				"type" : "JSON",
				"implicit" : 1
			}
, 			{
				"name" : "OSC-route.mxo",
				"type" : "iLaX"
			}
 ]
	}

}
